<svg xmlns="http://www.w3.org/2000/svg" width="64" height="64" viewBox="0 0 64 64" fill="none">
  <defs>
    <linearGradient id="g" x1="8" y1="6" x2="56" y2="58" gradientUnits="userSpaceOnUse">
      <stop stop-color="#2dd4bf" stop-opacity="0.95" />
      <stop offset="0.45" stop-color="#60a5fa" stop-opacity="0.95" />
      <stop offset="1" stop-color="#a855f7" stop-opacity="0.95" />
    </linearGradient>
    <radialGradient id="glow" cx="0" cy="0" r="1" gradientUnits="userSpaceOnUse" gradientTransform="translate(22 18) rotate(45) scale(46)">
      <stop stop-color="#ffffff" stop-opacity="0.55" />
      <stop offset="1" stop-color="#ffffff" stop-opacity="0" />
    </radialGradient>
  </defs>
  <rect x="5" y="5" width="54" height="54" rx="10" fill="#0b1020" />
  <rect x="7" y="7" width="50" height="50" rx="9" fill="url(#g)" opacity="0.9" />
  <rect x="7" y="7" width="50" height="50" rx="9" fill="url(#glow)" />
  <path d="M32 14l6.6 11.9 13.4 2.3-9.3 9.6 2 13.2L32 45.7 19.3 51l2-13.2-9.3-9.6 13.4-2.3L32 14z" fill="#0b1020" opacity="0.85"/>
  <path d="M32 18.2l5.1 9.2 10.4 1.8-7.2 7.4 1.6 10.2L32 42.7l-9.9 4.1 1.6-10.2-7.2-7.4 10.4-1.8L32 18.2z" fill="#fff" opacity="0.18"/>
</svg>
